<svg width="172px" height="23px" viewBox="55 8 172 23" version="1.1" xmlns="http://www.w3.org/2000/svg" xmlns:xlink="http://www.w3.org/1999/xlink">
    <!-- Generator: Sketch 40.2 (33826) - http://www.bohemiancoding.com/sketch -->
    <desc>Created with Sketch.</desc>
    <defs></defs>
    <path d="M55,30.6610644 L55,9.40056022 C57.7997526,9.21568535 60.4359765,9.1232493 62.9087507,9.1232493 C66.1172263,9.1232493 68.3600601,9.91409106 69.6373196,11.4957983 C70.914579,13.0775056 71.5531991,15.9224818 71.5531991,20.0308123 C71.5531991,24.1391429 70.914579,26.9841191 69.6373196,28.5658263 C68.3600601,30.1475336 66.1172263,30.9383754 62.9087507,30.9383754 C60.4359765,30.9383754 57.7997526,30.8459393 55,30.6610644 L55,30.6610644 Z M58.831759,12.3585434 L58.831759,27.6414566 C60.4257788,27.6825399 61.7847624,27.7030812 62.9087507,27.7030812 C64.6662596,27.7030812 65.8719744,27.1536003 66.5259312,26.0546218 C67.179888,24.9556434 67.5068615,22.947727 67.5068615,20.0308123 C67.5068615,17.1138976 67.1747791,15.1008459 66.5106042,13.9915966 C65.8464293,12.8823474 64.6458235,12.3277311 62.9087507,12.3277311 C62.3569746,12.3277311 61.6366111,12.3328664 60.7476386,12.3431373 C59.858666,12.3534081 59.2200459,12.3585434 58.831759,12.3585434 L58.831759,12.3585434 Z M75.5688826,18.5210084 L75.2010337,15.8711485 C77.8372971,15.3781488 80.340688,15.1316527 82.7112814,15.1316527 C84.6527157,15.1316527 86.0781158,15.5219382 86.9875245,16.302521 C87.8969332,17.0831038 88.3516307,18.4491032 88.3516307,20.4005602 L88.3516307,30.6610644 L85.4088398,30.6610644 L85.0103368,28.3501401 C83.4367533,30.1167222 81.5260019,31 79.2780253,31 C77.8679309,31 76.7235237,30.6148498 75.8447692,29.8445378 C74.9660147,29.0742258 74.5266441,28.0009406 74.5266441,26.6246499 L74.5266441,25.0840336 C74.5266441,23.8720761 74.9149251,22.9374449 75.6914988,22.280112 C76.4680726,21.6227792 77.5613902,21.2941176 78.9714846,21.2941176 L84.6118339,21.2941176 L84.6118339,20.3697479 C84.5913977,19.5069985 84.3972572,18.9318408 84.0294065,18.6442577 C83.6615558,18.3566746 82.9360834,18.2128852 81.8529674,18.2128852 C80.2793838,18.2128852 78.1847098,18.3155919 75.5688826,18.5210084 L75.5688826,18.5210084 Z M78.2357868,25.5462185 L78.2357868,26.1316527 C78.2357868,27.3641518 78.8897339,27.9803922 80.1976475,27.9803922 C81.6894865,27.9803922 83.1608672,27.3846932 84.6118339,26.1932773 L84.6118339,23.8515406 L79.8297986,23.8515406 C79.2371502,23.8720823 78.8233244,24.0261424 78.5883087,24.3137255 C78.3532929,24.6013086 78.2357868,25.0121355 78.2357868,25.5462185 L78.2357868,25.5462185 Z M99.1112101,24.929972 L95.1568348,23.8515406 C93.8489212,23.4817909 92.9344171,22.9579866 92.4132953,22.280112 C91.8921735,21.6022375 91.6316165,20.647065 91.6316165,19.4145658 C91.6316165,17.7917753 92.091423,16.672272 93.0110497,16.0560224 C93.9306765,15.4397728 95.5144544,15.1316527 97.7624309,15.1316527 C100.214769,15.172736 102.432058,15.3576081 104.414365,15.6862745 L104.138478,18.2745098 C101.604395,18.1923432 99.6936439,18.1512605 98.4061665,18.1512605 C97.0573805,18.1512605 96.1888572,18.2180199 95.8005703,18.3515406 C95.4122835,18.4850614 95.2181429,18.8496702 95.2181429,19.4453782 C95.2181429,19.5891697 95.2334698,19.7226885 95.264124,19.8459384 C95.2947783,19.9691883 95.3203231,20.071895 95.3407592,20.1540616 C95.3611954,20.2362282 95.4173939,20.3132583 95.5093566,20.3851541 C95.6013193,20.4570498 95.6677358,20.5135385 95.7086081,20.5546218 C95.7494804,20.5957052 95.8516596,20.6470585 96.0151488,20.7086835 C96.178638,20.7703084 96.2910352,20.8113911 96.3523436,20.8319328 C96.4136521,20.8524744 96.556703,20.8935571 96.7815006,20.9551821 C97.0062983,21.016807 97.169785,21.0578897 97.2719658,21.0784314 L101.318303,22.1876751 C102.605781,22.5574248 103.525394,23.0555524 104.07717,23.6820728 C104.628946,24.3085932 104.90483,25.2586304 104.90483,26.5322129 C104.90483,28.298795 104.404152,29.4850577 103.40278,30.0910364 C102.401409,30.6970152 100.664362,31 98.191588,31 C95.9436114,31 93.8489374,30.8356692 91.9075031,30.5070028 L92.1527357,27.8879552 C93.2154155,27.9701218 94.9218085,28.0112045 97.2719658,28.0112045 C98.8864217,28.0112045 99.9644124,27.9187684 100.50597,27.7338936 C101.047528,27.5490187 101.318303,27.1587331 101.318303,26.5630252 C101.318303,26.4397753 101.308085,26.3267979 101.287649,26.2240896 C101.267213,26.1213814 101.236559,26.0289453 101.195687,25.9467787 C101.154815,25.8646121 101.113943,25.7927174 101.073071,25.7310924 C101.032198,25.6694675 100.960673,25.6078434 100.858492,25.5462185 C100.756311,25.4845935 100.674568,25.4383755 100.61326,25.407563 C100.551951,25.3767505 100.444663,25.3356679 100.291392,25.2843137 C100.138121,25.2329596 100.025724,25.1970122 99.9541971,25.1764706 C99.8826706,25.1559289 99.7447286,25.1148462 99.5403671,25.0532213 C99.3360056,24.9915963 99.1929547,24.9505136 99.1112101,24.929972 L99.1112101,24.929972 Z M126.36268,19.5686275 L126.36268,19.6918768 C127.895392,19.8356683 128.988709,20.3748786 129.642666,21.3095238 C130.296623,22.244169 130.623597,23.5947624 130.623597,25.3613445 C130.623597,27.4976764 130.102482,28.9561119 129.060239,29.7366947 C128.017995,30.5172775 126.229859,30.907563 123.695776,30.907563 C120.017269,30.907563 117.207341,30.8253976 115.265906,30.6610644 L115.265906,9.40056022 C117.002979,9.236227 119.496152,9.15406162 122.7455,9.15406162 C125.463508,9.15406162 127.348715,9.53921183 128.401176,10.3095238 C129.453638,11.0798358 129.979861,12.5434066 129.979861,14.7002801 C129.979861,16.2409041 129.693759,17.4066254 129.121547,18.197479 C128.549335,18.9883326 127.629722,19.4453775 126.36268,19.5686275 L126.36268,19.5686275 Z M119.036357,18.2436975 L122.868116,18.2436975 C124.17603,18.2436975 125.075207,18.0331487 125.565675,17.6120448 C126.056142,17.1909409 126.301372,16.3846932 126.301372,15.1932773 C126.301372,14.0224031 126.035706,13.241832 125.504366,12.8515406 C124.973027,12.4612492 123.992106,12.2661064 122.561575,12.2661064 L119.036357,12.2661064 L119.036357,18.2436975 Z M119.036357,27.7647059 L123.052041,27.7955182 C124.503007,27.7955182 125.489037,27.5849694 126.010159,27.1638655 C126.53128,26.7427617 126.791837,25.9057019 126.791837,24.6526611 C126.791837,23.2558287 126.515954,22.3109268 125.964178,21.8179272 C125.412401,21.3249275 124.400827,21.0681607 122.929424,21.047619 L119.036357,21.047619 L119.036357,27.7647059 Z M144.417929,15.1316527 L144.019426,18.6442577 L142.946534,18.6442577 C141.883854,18.6442577 140.22855,19.0961673 137.980574,20 L137.980574,30.6610644 L134.240777,30.6610644 L134.240777,15.5630252 L137.152914,15.5630252 L137.490109,17.7815126 C139.635905,16.0149305 141.699925,15.1316527 143.682231,15.1316527 L144.417929,15.1316527 Z M148.004456,9 L149.721084,9 C150.436349,9 150.793976,9.35947353 150.793976,10.0784314 L150.793976,11.7731092 C150.793976,12.4920671 150.436349,12.8515406 149.721084,12.8515406 L148.004456,12.8515406 C147.28919,12.8515406 146.931563,12.4920671 146.931563,11.7731092 L146.931563,10.0784314 C146.931563,9.35947353 147.28919,9 148.004456,9 L148.004456,9 Z M150.732668,30.6610644 L147.023525,30.6610644 L147.023525,15.5630252 L150.732668,15.5630252 L150.732668,30.6610644 Z M158.794689,9.09243697 L158.794689,25.9467787 C158.774253,26.5424866 158.912195,26.9841255 159.208519,27.2717087 C159.504843,27.5592918 159.959541,27.7030812 160.572625,27.7030812 L161.860096,27.7030812 L162.289253,30.4761905 C161.594424,30.8253986 160.53176,31 159.10123,31 C157.854625,31 156.868595,30.6405265 156.143112,29.9215686 C155.417628,29.2026108 155.054892,28.1858142 155.054892,26.8711485 L155.054892,9.09243697 L158.794689,9.09243697 Z M168.420068,9.09243697 L168.420068,25.9467787 C168.399632,26.5424866 168.537574,26.9841255 168.833898,27.2717087 C169.130222,27.5592918 169.584919,27.7030812 170.198004,27.7030812 L171.485475,27.7030812 L171.914632,30.4761905 C171.219803,30.8253986 170.157139,31 168.726608,31 C167.480003,31 166.493974,30.6405265 165.76849,29.9215686 C165.043007,29.2026108 164.680271,28.1858142 164.680271,26.8711485 L164.680271,9.09243697 L168.420068,9.09243697 Z M175.378542,9 L177.09517,9 C177.810435,9 178.168063,9.35947353 178.168063,10.0784314 L178.168063,11.7731092 C178.168063,12.4920671 177.810435,12.8515406 177.09517,12.8515406 L175.378542,12.8515406 C174.663277,12.8515406 174.30565,12.4920671 174.30565,11.7731092 L174.30565,10.0784314 C174.30565,9.35947353 174.663277,9 175.378542,9 L175.378542,9 Z M178.106755,30.6610644 L174.397612,30.6610644 L174.397612,15.5630252 L178.106755,15.5630252 L178.106755,30.6610644 Z M182.674211,18.5210084 L182.306363,15.8711485 C184.942626,15.3781488 187.446017,15.1316527 189.81661,15.1316527 C191.758045,15.1316527 193.183445,15.5219382 194.092853,16.302521 C195.002262,17.0831038 195.45696,18.4491032 195.45696,20.4005602 L195.45696,30.6610644 L192.514169,30.6610644 L192.115666,28.3501401 C190.542082,30.1167222 188.631331,31 186.383354,31 C184.97326,31 183.828852,30.6148498 182.950098,29.8445378 C182.071344,29.0742258 181.631973,28.0009406 181.631973,26.6246499 L181.631973,25.0840336 C181.631973,23.8720761 182.020254,22.9374449 182.796828,22.280112 C183.573401,21.6227792 184.666719,21.2941176 186.076813,21.2941176 L191.717163,21.2941176 L191.717163,20.3697479 C191.696727,19.5069985 191.502586,18.9318408 191.134735,18.6442577 C190.766885,18.3566746 190.041412,18.2128852 188.958296,18.2128852 C187.384713,18.2128852 185.290039,18.3155919 182.674211,18.5210084 L182.674211,18.5210084 Z M185.341116,25.5462185 L185.341116,26.1316527 C185.341116,27.3641518 185.995063,27.9803922 187.302976,27.9803922 C188.794815,27.9803922 190.266196,27.3846932 191.717163,26.1932773 L191.717163,23.8515406 L186.935127,23.8515406 C186.342479,23.8720823 185.928653,24.0261424 185.693637,24.3137255 C185.458622,24.6013086 185.341116,25.0121355 185.341116,25.5462185 L185.341116,25.5462185 Z M202.630012,15.5630252 L202.875245,17.7815126 C205.204966,16.0149305 207.371166,15.1316527 209.373908,15.1316527 C210.702258,15.1316527 211.72405,15.4911262 212.439316,16.210084 C213.154581,16.9290419 213.512208,17.9663798 213.512208,19.3221289 L213.512208,30.6610644 L209.772411,30.6610644 L209.772411,20.4621849 C209.772411,19.6199771 209.660014,19.0499548 209.435217,18.7521008 C209.210419,18.4542469 208.791484,18.3053221 208.1784,18.3053221 C207.48357,18.3053221 206.773425,18.4491115 206.047942,18.7366947 C205.322458,19.0242778 204.387518,19.4967287 203.243094,20.1540616 L203.243094,30.6610644 L199.503297,30.6610644 L199.503297,15.5630252 L202.630012,15.5630252 Z M222.585814,18.2745098 L222.585814,25.9467787 C222.585814,26.6041116 222.718647,27.0611565 222.984317,27.3179272 C223.249986,27.5746978 223.720011,27.7030812 224.394404,27.7030812 L226.448227,27.7030812 L226.84673,30.4761905 C225.763614,30.8253986 224.476156,31 222.984317,31 C221.676403,31 220.669938,30.6199851 219.96489,29.859944 C219.259843,29.0999028 218.907325,28.0112116 218.907325,26.5938375 L218.907325,18.2745098 L216.179112,18.2745098 L216.179112,15.7170868 L218.876671,15.5630252 L218.876671,11.2184874 L222.585814,11.2184874 L222.585814,15.5630252 L227,15.5630252 L227,18.2745098 L222.585814,18.2745098 Z" id="Das-Brilliant" stroke="none" fill="#FFFFFF" fill-rule="evenodd"></path>
</svg>