
<svg width="40px" height="40px" viewBox="0 0 40 40" version="1.1" xmlns="http://www.w3.org/2000/svg" xmlns:xlink="http://www.w3.org/1999/xlink">
    <!-- Generator: Sketch 40.2 (33826) - http://www.bohemiancoding.com/sketch -->
    <desc>Created with Sketch.</desc>
    <defs></defs>
    <g id="Gear" stroke="none" stroke-width="1" fill="none" fill-rule="evenodd">
        <path d="M4.24949047,10.7003849 L0.791615334,11.979046 C1.08878949,11.2618912 1.4250874,10.5648201 1.79884425,9.89117992 C2.52804469,10.3305105 3.36046528,10.6150293 4.24949047,10.7003849" id="Fill-1" fill="#FFFFFF"></path>
        <path d="M15.3806353,2.34472803 L11.9926835,0.768995816 L11.9926835,0.768158996 C12.700241,0.475271967 13.4269441,0.220041841 14.1719606,0.00665271967 C14.3975465,0.881129707 14.8162541,1.67610879 15.3806353,2.34472803" id="Fill-3" fill="#FFFFFF"></path>
        <path d="M11.9918594,0.768995816 L10.7024399,4.31041841 C10.6283544,3.39075314 10.3453314,2.53133891 9.89998642,1.77820084 C10.5750795,1.40330544 11.272648,1.06606695 11.9918594,0.768995816" id="Fill-5" fill="#FFFFFF"></path>
        <path d="M2.37158291,15.3773891 C1.69898708,14.8125356 0.899863308,14.3949623 0.0216595838,14.1748787 C0.237256517,13.4250879 0.4953069,12.6920335 0.79081621,11.9798996 L2.37158291,15.3773891 Z" id="Fill-7" fill="#FFFFFF"></path>
        <path d="M27.7137538,0.768175732 L24.4007198,2.32466109 C24.9526147,1.66441004 25.3639137,0.881983264 25.5877516,0.0225690377 C26.3137056,0.232610879 27.0236771,0.481983264 27.7137538,0.768175732" id="Fill-9" fill="#FFFFFF"></path>
        <path d="M38.950616,27.8685607 C38.643536,28.6183515 38.2938361,29.344795 37.9059281,30.0468033 C37.1259501,29.574 36.2295163,29.2777657 35.268903,29.2133305 L38.950616,27.8685607 Z" id="Fill-11" fill="#FFFFFF"></path>
        <path d="M2.36073647,24.491205 L0.769148302,27.9003264 C0.473638992,27.1832552 0.21642103,26.4451799 0.00165651698,25.6894477 C0.882357503,25.4719582 1.68564337,25.0560586 2.36073647,24.491205" id="Fill-13" fill="#FFFFFF"></path>
        <path d="M29.9130007,1.83679498 C29.4543369,2.63428452 29.1755593,3.54892887 29.1321901,4.52549791 L27.7420478,0.8418159 L27.7637739,0.789096234 C28.5029634,1.09704603 29.22051,1.44767364 29.9130007,1.83679498" id="Fill-15" fill="#FFFFFF"></path>
        <path d="M39.678984,14.1547615 C38.8349095,14.375682 38.0640881,14.7807029 37.412386,15.3229623 L38.9289731,12.0125021 C39.2169906,12.7078996 39.4675492,13.4233808 39.678984,14.1547615" id="Fill-17" fill="#FFFFFF"></path>
        <path d="M39.7189818,25.6409372 C39.5042173,26.4025272 39.2469993,27.1455397 38.9506576,27.8685523 L37.364064,24.4209372 C38.0366598,24.9933222 38.8382808,25.4166695 39.7189818,25.6409372" id="Fill-19" fill="#FFFFFF"></path>
        <path d="M15.3389726,37.5455983 C14.7812508,38.2267699 14.3708675,39.0359749 14.1586002,39.9220837 C13.406092,39.7061841 12.671897,39.4484435 11.9576802,39.1506192 L15.3389726,37.5455983 Z" id="Fill-21" fill="#FFFFFF"></path>
        <path d="M29.7948053,38.1606276 C29.1496793,38.5187866 28.4837428,38.8417992 27.7987439,39.1288285 L29.0040057,35.7983682 C29.0989849,36.6543515 29.3761809,37.4544351 29.7948053,38.1606276" id="Fill-23" fill="#FFFFFF"></path>
        <path d="M27.7978865,39.1288536 L27.7978865,39.1296904 C27.092743,39.4259247 26.3677047,39.6836653 25.6251855,39.8995649 C25.410421,39.0200669 25.0017025,38.2174728 24.4456456,37.5413222 L27.7978865,39.1288536 Z" id="Fill-25" fill="#FFFFFF"></path>
        <polygon id="Stroke-27" fill="#FFFFFF" points="24.4156377 8.93804184 24.3996377 8.97604184 24.3616377 8.93804184"></polygon>
        <path d="M19.8948521,8.93342259 L19.8948521,9.88070293 C18.5380066,9.88070293 17.2435926,10.1518326 16.0632202,10.6438828 L15.3756407,8.97610042 L15.3581599,8.93342259 L19.8948521,8.93342259 Z" id="Fill-29" fill="#FFFFFF"></path>
        <polygon id="Stroke-31" fill="#FFFFFF" points="30.7977404 24.4627699 30.7977404 24.4757699 30.7887404 24.4717699"></polygon>
        <polygon id="Stroke-33" fill="#FFFFFF" points="30.7974053 15.3983096 30.7974053 15.4083096 30.7904053 15.4013096"></polygon>
        <polygon id="Stroke-35" fill="#FFFFFF" points="15.3839978 30.8467866 15.3749978 30.8678866 15.3539978 30.8467866"></polygon>
        <polygon id="Stroke-37" fill="#FFFFFF" points="24.4577529 30.8467866 24.4067529 30.8978866 24.3857529 30.8467866"></polygon>
        <polygon id="Stroke-39" fill="#FFFFFF" points="9.01896123 24.4669372 9.01896123 24.4789372 9.01096123 24.4709372"></polygon>
        <polygon id="Stroke-41" fill="#FFFFFF" points="9.02214524 15.4113682 9.00914524 15.4053682 8.99514524 15.3993682 9.02214524 15.3723682"></polygon>
        <polygon id="Fill-43" fill="#FFFFFF" points="19.8948521 4.44764854 19.8948521 8.9380251 15.4180942 8.9380251 19.8898576 4.44262762"></polygon>
        <polyline id="Stroke-45" fill="#FFFFFF" points="9.02214524 15.4059456 9.00914524 15.4009456 8.99514524 15.3949456"></polyline>
        <polygon id="Fill-47" fill="#FFFFFF" points="9.01762059 19.929682 9.01762059 24.4669205 9.01096123 24.4702678 4.4942471 19.929682"></polygon>
        <path d="M10.6391759,16.0794477 L10.6391759,16.0802845 C10.1455505,17.2652218 9.87168412,18.5656402 9.86752202,19.9296569 L9.01762059,19.9296569 L9.01762059,15.4049707 L10.6391759,16.0794477 Z" id="Fill-49" fill="#FFFFFF"></path>
        <polygon id="Fill-51" fill="#FFFFFF" points="9.01762059 15.4050042 9.01762059 19.9296904 4.4942471 19.9296904 4.48925257 19.9246695 8.99514524 15.3949623"></polygon>
        <path d="M8.99514524,15.394954 L4.48925257,19.9246611 C4.48758773,18.0987197 3.66515619,16.4652469 2.37240701,15.3782176 L2.37157459,15.3773808 L0.790807886,11.9798912 L0.790807886,11.9790544 L0.791640307,11.9790544 L8.99514524,15.394954 Z" id="Fill-53" fill="#FFFFFF"></path>
        <path d="M9.01762059,8.96701255 L9.01762059,15.3711967 L8.99514524,15.3937908 L0.791640307,11.9778912 L4.24951544,10.6992301 C4.43847492,10.718477 4.62993165,10.727682 4.82305323,10.727682 C6.46458664,10.727682 7.94879255,10.0540418 9.01762059,8.96701255" id="Fill-55" fill="#FFFFFF"></path>
        <path d="M12.8434173,12.7999582 C11.9077766,13.7288285 11.1544359,14.8417992 10.6391676,16.0794561 L9.01761227,15.4049791 L9.01761227,15.3723431 L12.2107777,12.1623013 L12.8434173,12.7999582 Z" id="Fill-57" fill="#FFFFFF"></path>
        <path d="M16.0632368,10.6484937 C14.8520648,11.1514226 13.7607614,11.8869874 12.843434,12.7999582 L12.2107943,12.1623013 L15.3756574,8.9807113 L16.0632368,10.6484937 Z" id="Fill-59" fill="#FFFFFF"></path>
        <path d="M9.04676364,8.93804184 C10.0839597,7.86942259 10.7224263,6.40917155 10.7224263,4.79912971 C10.7224263,4.63511297 10.7157669,4.47193305 10.7024482,4.3112636 L10.7024482,4.31042678 L11.9918677,0.769004184 L11.9918677,0.768167364 L11.9927001,0.768167364 L11.9927001,0.769004184 L15.3581766,8.93804184 L9.04676364,8.93804184 Z" id="Fill-61" fill="#FFFFFF"></path>
        <polygon id="Fill-63" fill="#FFFFFF" points="24.3616377 8.93804184 19.8948688 8.93804184 19.8948688 4.44766527"></polygon>
        <path d="M24.393253,8.96983264 L23.7056736,10.6392887 C22.5311281,10.1530962 21.2442059,9.88531381 19.8948521,9.88531381 L19.8948521,8.93803347 L24.361621,8.93803347 L24.393253,8.96983264 Z" id="Fill-65" fill="#FFFFFF"></path>
        <path d="M27.5847452,12.1782259 L26.9579325,12.8091883 C26.0331133,11.8870126 24.930156,11.1447531 23.7056653,10.6393138 L24.3932447,8.96985774 L27.5847452,12.1782259 Z" id="Fill-67" fill="#FFFFFF"></path>
        <path d="M30.790372,15.4008033 L29.1514191,16.0828117 C28.6385647,14.8485021 27.888637,13.7380418 26.9579076,12.8091715 L27.5847203,12.1782092 L30.790372,15.4008033 Z" id="Fill-69" fill="#FFFFFF"></path>
        <path d="M30.7962322,19.929682 L30.7962322,24.4627364 L30.7887404,24.4702678 L29.173012,23.7974644 C29.6566484,22.6167113 29.923023,21.3229874 29.923023,19.9665021 C29.923023,19.9539498 29.923023,19.9422343 29.9221906,19.929682 L30.7962322,19.929682 Z" id="Fill-71" fill="#FFFFFF"></path>
        <path d="M19.8898909,4.44266109 L15.4181275,8.93805858 L15.3581932,8.93805858 L11.9926335,0.769020921 L15.3806686,2.34475314 C16.4628153,3.62843515 18.077628,4.44266109 19.8823159,4.44266109 L19.8898909,4.44266109 Z" id="Fill-73" fill="#FFFFFF"></path>
        <polygon id="Fill-75" fill="#FFFFFF" points="30.7962322 8.93804184 30.7962322 8.9489205 27.5847536 12.1782092 24.393253 8.969841 24.4065717 8.93804184"></polygon>
        <path d="M27.7420394,0.841807531 L24.4066134,8.93804184 L24.3616627,8.93804184 L19.8948105,4.44766527 L19.8948105,4.44264435 C21.702828,4.43846025 23.3211369,3.61670293 24.399954,2.32465272 L24.4007032,2.32465272 L27.7137371,0.768167364 L27.7146528,0.768167364 L27.7146528,0.769004184 L27.7420394,0.841807531 Z" id="Fill-77" fill="#FFFFFF"></path>
        <polygon id="Fill-79" fill="#FFFFFF" points="30.7962322 8.94891213 30.7962322 15.3982845 30.7904053 15.400795 27.5847536 12.1782008"></polygon>
        <path d="M30.7962322,15.4066444 L30.7962322,19.9296569 L29.9221906,19.9296569 C29.9180285,18.566477 29.6441621,17.2677322 29.1513691,16.082795 L30.7904053,15.4007866 L30.7962322,15.4066444 Z" id="Fill-81" fill="#FFFFFF"></path>
        <path d="M30.7962322,8.93804184 L24.4065717,8.93804184 L27.7420811,0.841807531 L29.1322234,4.52548954 L29.1322234,4.52632636 C29.1272289,4.61670293 29.1255641,4.7070795 29.1255641,4.79912971 C29.1255641,6.40582427 29.760701,7.86356485 30.7937349,8.93134728 L30.7962322,8.93804184 Z" id="Fill-83" fill="#FFFFFF"></path>
        <path d="M38.9281823,12.011682 L35.4860399,10.7104268 C36.3742326,10.6418075 37.2075689,10.3748619 37.9416806,9.95394142 C38.3080289,10.6183766 38.636835,11.3054059 38.9281823,12.011682" id="Fill-85" fill="#FFFFFF"></path>
        <path d="M38.9281823,12.011682 L30.7962655,15.3982929 L30.7962655,8.9489205 L30.803674,8.94222594 C31.8742502,10.044318 33.3692775,10.7288368 35.0241297,10.7288368 C35.1797923,10.7288368 35.3337069,10.7229791 35.4860399,10.7104268 L38.9281823,12.011682 Z" id="Fill-87" fill="#FFFFFF"></path>
        <path d="M35.2746383,19.9606527 L30.7962156,24.4627448 L30.7962156,19.9296904 L35.2738059,19.9296904 C35.2738059,19.9397322 35.2738059,19.9506109 35.2746383,19.9606527" id="Fill-89" fill="#FFFFFF"></path>
        <path d="M30.7887487,24.4702845 L27.6089021,27.6668536 L27.0136381,27.0677741 C27.9310488,26.1380669 28.6702383,25.0292803 29.1730204,23.7974812 L30.7887487,24.4702845 Z" id="Fill-91" fill="#FFFFFF"></path>
        <polygon id="Fill-93" fill="#FFFFFF" points="35.2738226 19.9078996 35.2738226 19.9296569 30.7962322 19.9296569 30.7962322 15.4066444"></polygon>
        <path d="M38.928998,12.011682 L38.928998,12.0125188 L37.4123277,15.3229791 C36.1062598,16.411682 35.2738392,18.0543598 35.2738392,19.8928536 L35.2738392,19.9079163 L30.7962488,15.4066611 L30.7962488,15.3982929 L38.9281656,12.011682 L38.928998,12.011682 Z" id="Fill-95" fill="#FFFFFF"></path>
        <path d="M38.950616,27.8685607 L30.7962239,24.4736653 L30.7962239,24.4627866 L35.2746467,19.9606109 C35.2937923,21.7488954 36.1013235,23.3463849 37.3640223,24.4209456 L38.950616,27.8685607 Z" id="Fill-97" fill="#FFFFFF"></path>
        <path d="M24.3857779,30.8467866 L19.8948688,30.8467866 L19.8948688,30.0476234 C21.2567089,30.0476234 22.5561174,29.7748201 23.7398195,29.2795063 L24.3857779,30.8467866 Z" id="Fill-99" fill="#FFFFFF"></path>
        <path d="M38.950616,27.8728954 L35.268903,29.2176653 C35.1356324,29.2084603 35.0007803,29.2034393 34.8650957,29.2034393 C33.2876587,29.2034393 31.8542304,29.8261172 30.7962239,30.8402594 L30.7962239,24.478 L38.950616,27.8728954 Z" id="Fill-101" fill="#FFFFFF"></path>
        <path d="M30.7962322,24.4819749 L30.7962322,30.8442343 C30.7920701,30.8485021 30.7887404,30.8518494 30.7854107,30.855113 L30.7670975,30.855113 L27.6088938,27.6751967 L30.7887404,24.4786276 L30.7962322,24.4819749 Z" id="Fill-103" fill="#FFFFFF"></path>
        <path d="M27.7978865,39.1288536 L24.4456456,37.5413222 L24.4448964,37.540569 C23.3702414,36.2333724 21.7486028,35.3957992 19.9315119,35.3849205 L24.4032754,30.889523 L27.7978865,39.1288536 Z" id="Fill-105" fill="#FFFFFF"></path>
        <path d="M11.9577135,39.1497741 C11.2468263,38.8543766 10.5550848,38.5196485 9.88665104,38.1480167 C10.3369906,37.4108619 10.630835,36.5673473 10.7232337,35.6644184 L11.9577135,39.1497741 Z" id="Fill-107" fill="#FFFFFF"></path>
        <path d="M4.26449069,29.1497741 C3.35715225,29.2392301 2.5105805,29.5372218 1.77222344,29.9941255 C1.40013143,29.3188117 1.06549836,28.6200669 0.769989047,27.9012385 L4.26449069,29.1497741 Z" id="Fill-109" fill="#FFFFFF"></path>
        <path d="M15.3706795,30.8644435 L11.9569227,39.1497992 L10.7224429,35.6643598 C10.7432535,35.4618494 10.7540749,35.257749 10.7540749,35.0502176 C10.7540749,33.4091297 10.0914681,31.9246946 9.02014283,30.8510544 L9.02430493,30.8467866 L15.3531987,30.8467866 L15.3706795,30.8644435 Z" id="Fill-111" fill="#FFFFFF"></path>
        <polygon id="Fill-113" fill="#FFFFFF" points="15.3527575 30.8467866 9.02386375 30.8467866 12.187062 27.6644435"></polygon>
        <path d="M19.8681897,35.3840837 C18.0451886,35.3924519 16.4170572,36.2317824 15.3398217,37.5447531 L11.9585292,39.1497741 L11.9576968,39.1497741 L11.9576968,39.1489372 L15.3714537,30.8635816 L19.8681897,35.3840837 Z" id="Fill-115" fill="#FFFFFF"></path>
        <polygon id="Fill-117" fill="#FFFFFF" points="19.8948521 30.8467866 19.8948521 35.3848619 19.8682147 35.3848619 15.3714786 30.8644435 15.3789704 30.8467866"></polygon>
        <path d="M19.8948521,30.0476402 L19.8948521,30.8468033 L15.3789704,30.8468033 L16.0282585,29.2702343 C17.2186199,29.7714895 18.5246878,30.0476402 19.8948521,30.0476402" id="Fill-119" fill="#FFFFFF"></path>
        <path d="M16.0282418,29.2702343 L15.3789538,30.8468033 L15.3539812,30.8468033 L12.1882857,27.6644603 L12.7793043,27.0702343 C13.7007939,28.0032887 14.8029187,28.7556736 16.0282418,29.2702343" id="Fill-121" fill="#FFFFFF"></path>
        <polygon id="Fill-123" fill="#FFFFFF" points="12.188294 27.666954 9.02509573 30.8492971 9.01760394 30.8492971 9.01760394 24.4795063"></polygon>
        <path d="M9.02383877,24.4736402 L9.02383877,30.843431 L9.02217393,30.8425941 C7.95584315,29.7756485 6.48495597,29.1162343 4.86173582,29.1162343 C4.66195487,29.1162343 4.46633604,29.1263598 4.27154962,29.1464435 L4.2707172,29.1464435 L0.776215553,27.8979079 L9.01717941,24.4669456 L9.02383877,24.4736402 Z" id="Fill-125" fill="#FFFFFF"></path>
        <path d="M12.7793209,27.0702343 L12.1883023,27.6644603 L9.01761227,24.4770126 L9.01761227,24.4669707 L10.6183571,23.8008619 C11.1219715,25.0318243 11.861161,26.1406109 12.7793209,27.0702343" id="Fill-127" fill="#FFFFFF"></path>
        <path d="M10.6183654,23.8008285 L9.01762059,24.4669372 L9.01762059,19.9296987 L9.86752202,19.9296987 C9.86668959,19.942251 9.86668959,19.9539665 9.86668959,19.9665188 C9.86668959,21.3237573 10.1338966,22.6192385 10.6183654,23.8008285" id="Fill-129" fill="#FFFFFF"></path>
        <path d="M9.0109529,24.4702845 L0.769989047,27.9012469 L0.769156627,27.9012469 L0.769156627,27.9003264 L2.3607448,24.491205 L2.3607448,24.4902845 C3.66098576,23.4024184 4.48924425,21.7630879 4.48924425,19.9296987 L4.49423877,19.9296987 L9.0109529,24.4702845 Z" id="Fill-131" fill="#FFFFFF"></path>
        <path d="M15.3770642,8.9807364 L12.2122011,12.1623264 L9.02902475,8.95814226 C9.03568412,8.9514477 9.04234348,8.94475314 9.04817043,8.93805858 L15.3595834,8.93805858 L15.3770642,8.9807364 Z" id="Fill-133" fill="#FFFFFF"></path>
        <path d="M28.9666134,35.1280586 C28.9666134,35.3539163 28.9790164,35.5773473 29.003989,35.7975146 L27.7987273,39.1280586 L27.7987273,39.1288954 L27.7978949,39.1288954 L27.7978949,39.1280586 L24.4032837,30.888728 L24.4456539,30.8459665 L30.7671391,30.8459665 L30.7762125,30.8551715 C29.6608521,31.9329958 28.9666134,33.4493138 28.9666134,35.1280586" id="Fill-135" fill="#FFFFFF"></path>
        <polygon id="Fill-137" fill="#FFFFFF" points="30.7696447 30.8459749 24.4482427 30.8459749 27.611441 27.6660586"></polygon>
        <path d="M27.6088854,27.6668703 L24.4456872,30.8467866 L24.3857529,30.8467866 L23.7398778,29.2795063 C24.9751067,28.7647782 26.0855558,28.0074561 27.0137047,27.0677908 L27.6088854,27.6668703 Z" id="Fill-139" fill="#FFFFFF"></path>
        <polygon id="Fill-141" fill="#FFFFFF" points="24.4032587 30.8895314 19.9314953 35.3849289 19.8948688 35.3849289 19.8948688 30.8467699 24.3857779 30.8467699"></polygon>
        <path d="M12.2107693,12.1623264 L9.01760394,15.3723682 L9.01760394,8.9681841 C9.02093363,8.96483682 9.02426331,8.96148954 9.02759299,8.95814226 L12.2107693,12.1623264 Z" id="Fill-143" fill="#FFFFFF"></path>
    </g>
</svg>