<?xml version="1.0" encoding="UTF-8"?>
<svg width="38px" height="46px" viewBox="0 0 38 46" version="1.1" xmlns="http://www.w3.org/2000/svg" xmlns:xlink="http://www.w3.org/1999/xlink">
    <!-- Generator: Sketch 39.1 (31720) - http://www.bohemiancoding.com/sketch -->
    <title>Money_bag</title>
    <desc>Created with Sketch.</desc>
    <defs></defs>
    <g id="Актуальные" stroke="none" stroke-width="1" fill="none" fill-rule="evenodd">
        <g id="Главная" transform="translate(-221.000000, -1029.000000)" fill="#00AFBC">
            <path d="M256.11055,1046.466 C256.034947,1046.48454 255.957393,1046.49394 255.87955,1046.494 C255.423894,1046.49363 255.027839,1046.18109 254.92155,1045.738 C254.46355,1043.83 250.98155,1043.073 249.65255,1042.805 C249.343916,1043.43147 248.763766,1043.88073 248.079991,1044.02276 C247.396217,1044.16479 246.685143,1043.98374 246.15255,1043.532 C246.27455,1043.655 246.40055,1043.78 246.53955,1043.932 C246.72055,1044.083 246.88955,1044.232 247.03955,1044.366 C247.05655,1044.38 247.07255,1044.395 247.08855,1044.411 L247.08855,1044.411 C248.38855,1045.655 254.51155,1052.099 256.72755,1058.011 C258.55155,1062.879 258.68155,1064.873 258.65655,1066.499 C258.62255,1068.741 258.53255,1074.694 248.04055,1074.808 C242.20955,1074.874 241.02055,1074.908 231.64055,1074.772 C221.12855,1074.617 221.04055,1068.719 221.00255,1066.499 C220.97755,1064.874 221.10255,1062.879 222.93255,1058.011 C224.952809,1052.7146 228.286996,1048.01907 232.62155,1044.366 C232.777419,1044.22709 232.914868,1044.06881 233.03055,1043.895 C233.248338,1043.45264 233.369036,1042.96882 233.38455,1042.476 C233.13855,1042.526 232.89355,1042.566 232.64755,1042.621 C232.331727,1042.69245 232.001775,1042.58999 231.781984,1042.35221 C231.562192,1042.11442 231.485952,1041.77744 231.581984,1041.46821 C231.678015,1041.15897 231.931727,1040.92445 232.24755,1040.853 C232.51655,1040.793 232.78155,1040.753 233.04755,1040.695 C232.423922,1039.30058 231.58838,1038.01101 230.57055,1036.872 C230.38555,1036.646 230.21455,1036.434 230.06255,1036.24 C229.143584,1035.04237 228.5587,1033.62243 228.36755,1032.125 C228.34355,1031.989 228.32655,1031.887 228.31255,1031.83 L228.24155,1031.58 C227.74755,1029.826 227.72855,1029.758 228.02755,1029.362 C228.201154,1029.13468 228.470521,1029.00092 228.75655,1029 C229.144501,1029.02244 229.490488,1029.25157 229.66255,1029.6 C229.793128,1029.81309 229.951148,1030.00809 230.13255,1030.18 C230.359086,1030.13829 230.58925,1030.11953 230.81955,1030.124 C231.660743,1030.15468 232.499292,1030.2365 233.33055,1030.369 C234.425868,1030.53606 235.529527,1030.64288 236.63655,1030.689 L236.64155,1030.689 C237.621755,1030.65461 238.582983,1030.40901 239.45955,1029.969 C240.47431,1029.44977 241.601899,1029.19004 242.74155,1029.213 C244.121011,1029.38778 245.420521,1029.95766 246.48355,1030.854 C246.976838,1031.23412 247.508769,1031.56125 248.07055,1031.83 C248.854081,1031.99819 249.670803,1031.91273 250.40255,1031.586 C250.753249,1031.44232 251.124539,1031.35523 251.50255,1031.328 C251.818696,1031.31877 252.123815,1031.4446 252.34155,1031.674 C252.8312,1031.9899 252.986931,1032.63438 252.69555,1033.139 C252.63255,1033.317 252.53655,1033.59 252.39555,1034.011 C251.90255,1035.535 249.51755,1037.187 247.01355,1039.16 C246.78655,1039.339 246.61355,1039.474 246.51955,1039.554 C246.279826,1039.76391 246.068989,1040.00467 245.89255,1040.27 C246.354161,1039.73442 247.038301,1039.44354 247.744276,1039.48271 C248.450251,1039.52188 249.098017,1039.88664 249.49755,1040.47 C250.349873,1039.86696 251.056746,1039.08116 251.56655,1038.17 C251.675635,1037.64635 252.171706,1037.2967 252.70155,1037.37 C253.219442,1037.44051 253.584437,1037.91425 253.52055,1038.433 C253.170306,1039.52994 252.5105,1040.50229 251.62055,1041.233 C253.62055,1041.781 256.26455,1042.886 256.83755,1045.272 C256.900167,1045.52678 256.858659,1045.79601 256.722215,1046.0201 C256.585771,1046.24419 256.365642,1046.40467 256.11055,1046.466 L256.11055,1046.466 Z M245.89355,1037.735 C248.80455,1035.442 250.41255,1034.255 250.67255,1033.451 C250.67855,1033.434 250.68455,1033.417 250.68955,1033.399 C249.623015,1033.8021 248.452376,1033.83729 247.36355,1033.499 C246.67951,1033.18169 246.032312,1032.79035 245.43355,1032.332 C244.635788,1031.6383 243.658221,1031.18418 242.61355,1031.022 C241.759468,1031.02612 240.919246,1031.23823 240.16555,1031.64 C239.093213,1032.16684 237.921578,1032.46095 236.72755,1032.503 L236.60055,1032.503 C235.42526,1032.45566 234.253478,1032.34349 233.09055,1032.167 C232.338848,1032.04761 231.580953,1031.97115 230.82055,1031.938 C230.682092,1031.93391 230.543602,1031.94498 230.40755,1031.971 C230.335109,1031.98709 230.261574,1031.99779 230.18755,1032.003 C230.334515,1033.23557 230.76474,1034.4174 231.44455,1035.456 C231.63655,1035.697 231.80155,1035.899 231.97755,1036.116 C232.92855,1037.287 234.24455,1038.375 234.86155,1040.216 C237.842801,1039.7155 240.882742,1039.67032 243.87755,1040.082 C244.189122,1039.32436 244.697702,1038.66386 245.35055,1038.169 C245.45255,1038.082 245.64355,1037.932 245.89355,1037.734 L245.89355,1037.735 Z M245.40555,1042.42 C245.444949,1042.65473 245.548814,1042.87388 245.70555,1043.053 C245.579407,1042.85925 245.483318,1042.64751 245.42055,1042.425 L245.40555,1042.42 Z M245.82955,1045.706 C245.69355,1045.584 245.52455,1045.438 245.34055,1045.286 C245.307722,1045.25901 245.276968,1045.2296 245.24855,1045.198 C245.08655,1045.021 244.93655,1044.872 244.79955,1044.734 C244.04411,1044.11607 243.59064,1043.20331 243.55455,1042.228 C243.55455,1042.157 243.56055,1042.094 243.55955,1042.028 C240.782695,1041.66035 237.966843,1041.70348 235.20255,1042.156 C235.238539,1043.05674 235.043706,1043.95173 234.63655,1044.756 C234.618906,1044.79249 234.598514,1044.8276 234.57555,1044.861 C234.358822,1045.18999 234.098824,1045.48833 233.80255,1045.748 C229.704007,1049.20167 226.550894,1053.64074 224.63955,1058.648 C222.92355,1063.22 222.80155,1065.02 222.82455,1066.472 C222.85855,1068.695 222.92455,1072.672 231.67655,1072.802 C242.25355,1072.96 242.90455,1072.895 248.02655,1072.838 C256.75355,1072.743 256.81655,1068.719 256.85055,1066.472 C256.87255,1065.021 256.75055,1063.221 255.03655,1058.648 C252.89755,1052.938 246.54655,1046.39 245.82955,1045.705 L245.82955,1045.706 Z M244.78455,1062.266 C244.78455,1064.259 243.55555,1066.32 240.28455,1066.697 L240.28455,1068.797 L239.91855,1068.797 L239.91855,1068.814 L238.40655,1068.814 L238.40655,1066.749 C236.426266,1066.68877 234.558307,1065.81519 233.24255,1064.334 L234.39255,1062.862 C235.399671,1064.07579 236.838864,1064.85096 238.40655,1065.024 L238.40655,1059.435 C236.06055,1058.791 233.72555,1058.009 233.72555,1055.18 C233.72555,1052.812 235.64655,1051.133 238.40655,1050.926 L238.40655,1048.88 L239.28455,1048.88 L239.28455,1048.86 L240.28455,1048.86 L240.28455,1051.012 C241.867319,1051.1913 243.337882,1051.91739 244.44255,1053.065 L243.29255,1054.465 C242.498991,1053.59143 241.443526,1052.99878 240.28455,1052.776 L240.28455,1057.813 C242.53955,1058.472 244.78455,1059.405 244.78455,1062.266 L244.78455,1062.266 Z M240.28455,1064.984 C241.671564,1064.917 242.772449,1063.79214 242.80955,1062.404 C242.80955,1061.026 241.72055,1060.392 240.28455,1059.923 L240.28455,1064.984 L240.28455,1064.984 Z M238.40655,1052.653 C236.77355,1052.768 235.70655,1053.734 235.70655,1055.067 C235.70655,1056.332 236.84555,1056.884 238.40655,1057.344 L238.40655,1052.653 L238.40655,1052.653 Z" id="Money_bag"></path>
        </g>
    </g>
</svg>