<?xml version="1.0" encoding="UTF-8"?>
<svg width="35px" height="44px" viewBox="0 0 35 44" version="1.1" xmlns="http://www.w3.org/2000/svg" xmlns:xlink="http://www.w3.org/1999/xlink">
    <!-- Generator: Sketch 39.1 (31720) - http://www.bohemiancoding.com/sketch -->
    <title>Ship_box</title>
    <desc>Created with Sketch.</desc>
    <defs></defs>
    <g id="Актуальные" stroke="none" stroke-width="1" fill="none" fill-rule="evenodd">
        <g id="Главная" transform="translate(-623.000000, -1029.000000)" fill="#00AFBC">
            <path d="M656.856836,1046.986 L656.856836,1063.007 C656.856836,1063.55928 656.40912,1064.007 655.856836,1064.007 L635.510836,1064.007 C635.608604,1064.31302 635.683477,1064.62588 635.734836,1064.943 L649.334836,1064.943 C649.625618,1064.9431 649.901955,1065.06977 650.091836,1065.29 L653.257836,1068.957 C653.501151,1069.22614 653.579605,1069.60595 653.462839,1069.94946 C653.346073,1070.29297 653.052406,1070.5463 652.695478,1070.6114 C652.33855,1070.6765 651.974359,1070.54317 651.743836,1070.263 L648.876836,1066.943 L635.729836,1066.943 C635.179245,1070.30322 632.096479,1072.64579 628.711579,1072.27612 C625.32668,1071.90646 622.822215,1068.95371 623.009891,1065.55386 C623.197566,1062.15401 626.011814,1059.49485 629.416836,1059.5 C629.559836,1059.5 629.692836,1059.533 629.832836,1059.542 L629.832836,1031 L626.499836,1031 C625.947551,1031 625.499836,1030.55228 625.499836,1030 C625.499836,1029.44772 625.947551,1029 626.499836,1029 L630.833836,1029 C631.38612,1029 631.833836,1029.44772 631.833836,1030 L631.833836,1059.98 C632.587678,1060.28908 633.27564,1060.73912 633.860836,1061.306 L633.860836,1046.956 L632.860836,1046.956 L632.860836,1042.015 C632.860836,1041.46272 633.308551,1041.015 633.860836,1041.015 L656.860836,1041.015 C657.41312,1041.015 657.860836,1041.46272 657.860836,1042.015 L657.860836,1046.981 L656.856836,1046.986 Z M629.416836,1061.5 C627.630235,1061.4996 626.01933,1062.57551 625.335347,1064.22599 C624.651364,1065.87648 625.029017,1067.77648 626.292191,1069.03994 C627.555366,1070.3034 629.455275,1070.68148 631.105917,1069.99787 C632.75656,1069.31426 633.832836,1067.7036 633.832836,1065.917 C633.830631,1063.47886 631.854973,1061.50276 629.416836,1061.5 L629.416836,1061.5 Z M654.856836,1062.007 L654.848836,1048.915 L635.863836,1048.915 L635.863836,1062.005 L654.863836,1062.005 L654.856836,1062.007 Z M655.856836,1043.018 L634.856836,1043.018 L634.856836,1046.938 C634.88975,1046.92914 634.923136,1046.92213 634.956836,1046.917 L655.556836,1046.917 C655.615436,1046.92345 655.673336,1046.93516 655.729836,1046.952 L655.845836,1046.952 L655.845836,1043.015 L655.856836,1043.018 Z M642.856836,1051.038 L647.825836,1051.038 C648.37812,1051.038 648.825836,1051.48572 648.825836,1052.038 C648.825836,1052.59028 648.37812,1053.038 647.825836,1053.038 L642.856836,1053.038 C642.49957,1053.03746 642.169729,1052.84637 641.99156,1052.5367 C641.813392,1052.22703 641.813963,1051.84583 641.99306,1051.5367 C642.172157,1051.22757 642.50257,1051.03746 642.859836,1051.038 L642.856836,1051.038 Z" id="Ship_box"></path>
        </g>
    </g>
</svg>