<?xml version="1.0" encoding="UTF-8"?>
<svg width="44px" height="41px" viewBox="0 0 44 41" version="1.1" xmlns="http://www.w3.org/2000/svg" xmlns:xlink="http://www.w3.org/1999/xlink">
    <!-- Generator: Sketch 39.1 (31720) - http://www.bohemiancoding.com/sketch -->
    <title>Like</title>
    <desc>Created with Sketch.</desc>
    <defs></defs>
    <g id="Актуальные" stroke="none" stroke-width="1" fill="none" fill-rule="evenodd">
        <g id="Главная" transform="translate(-1018.000000, -1031.000000)" fill="#00AFBC">
            <path d="M1031.516,1071.265 C1030.46017,1071.1834 1029.50435,1070.60954 1028.936,1069.716 C1028.136,1068.754 1027.578,1068.294 1026.606,1068.294 L1018.993,1068.294 C1018.443,1068.294 1018,1068.405 1018,1067.855 L1018,1052.703 C1017.99999,1052.4314 1018.11046,1052.17149 1018.306,1051.983 C1018.50193,1051.79681 1018.7638,1051.69609 1019.034,1051.703 C1020.9866,1051.67151 1022.92371,1051.35034 1024.782,1050.75 C1029.361,1049.287 1036.097,1043.574 1035.997,1038.987 C1035.959,1037.28 1036.053,1036.157 1036.01,1035.387 C1035.916,1033.718 1035.895,1033.322 1036.627,1032.466 C1037.66876,1031.53065 1039.01698,1031.00915 1040.417,1031 C1042.18,1031 1045.197,1032 1045.609,1038.666 C1045.611,1038.70397 1045.611,1038.74203 1045.609,1038.78 C1045.484,1041.149 1045.294,1043.339 1045.135,1044.28 L1052.367,1044.3 L1057.293,1044.3 C1058.40029,1044.21723 1059.49269,1044.59488 1060.31245,1045.34384 C1061.1322,1046.09281 1061.60671,1047.14675 1061.624,1048.257 C1061.62101,1049.44774 1061.12935,1050.58505 1060.264,1051.403 C1061.18987,1052.52487 1061.62759,1053.97095 1061.47932,1055.41795 C1061.33105,1056.86496 1060.60915,1058.19222 1059.475,1059.103 C1059.65916,1059.65812 1059.75335,1060.23913 1059.754,1060.824 C1059.76263,1062.83246 1058.65806,1064.68047 1056.885,1065.624 C1057.0046,1065.91909 1057.06574,1066.2346 1057.065,1066.553 C1057.065,1069.553 1054.624,1071.278 1051.623,1071.278 L1048.697,1071.278 L1031.516,1071.265 Z M1019.997,1066.271 C1021.486,1066.279 1024.697,1066.263 1026.603,1066.263 C1028.14747,1066.28168 1029.58794,1067.04474 1030.471,1068.312 C1030.72512,1068.71858 1031.0854,1069.04809 1031.513,1069.265 L1048.688,1069.273 L1051.618,1069.273 C1053.518,1069.273 1055.06,1068.446 1055.06,1066.548 C1055.05929,1066.1721 1054.93762,1065.80641 1054.713,1065.505 C1054.5848,1065.24299 1054.57739,1064.93807 1054.69271,1064.67014 C1054.80803,1064.40221 1055.03458,1064.19799 1055.313,1064.111 C1056.29493,1063.80919 1057.09087,1063.08479 1057.48356,1062.13555 C1057.87626,1061.18631 1057.82472,1060.11132 1057.343,1059.204 C1057.08747,1058.7242 1057.26202,1058.12816 1057.736,1057.862 C1058.75887,1057.29038 1059.42056,1056.23753 1059.49197,1055.06795 C1059.56339,1053.89836 1059.03472,1052.77283 1058.089,1052.081 C1057.80357,1051.8718 1057.64997,1051.52731 1057.6851,1051.17517 C1057.72024,1050.82304 1057.93887,1050.51569 1058.26,1050.367 C1059.08386,1049.98578 1059.61227,1049.16178 1059.615,1048.254 C1059.59639,1047.67344 1059.33154,1047.12825 1058.88668,1046.75477 C1058.44182,1046.38129 1057.85901,1046.21482 1057.284,1046.297 L1052.316,1046.297 L1043.857,1046.227 C1043.54344,1046.21357 1043.25437,1046.05371 1043.07631,1045.79527 C1042.89825,1045.53682 1042.85185,1045.20977 1042.951,1044.912 C1043.30649,1042.86902 1043.52298,1040.80428 1043.599,1038.732 C1043.43,1036.103 1042.736,1033 1040.407,1033 C1039.58863,1033.02803 1038.7968,1033.29731 1038.131,1033.774 C1038.07139,1033.8399 1038.01627,1033.90973 1037.966,1033.983 C1037.94467,1034.41384 1037.95503,1034.84567 1037.997,1035.275 C1038.041,1036.056 1037.948,1037.2 1037.987,1038.938 C1038.113,1044.674 1030.587,1050.993 1025.387,1052.655 C1023.63433,1053.19505 1021.82615,1053.53488 1019.997,1053.668 L1019.997,1066.268 L1019.997,1066.271 Z M1058.539,1053.248 L1048.763,1053.248 C1048.21072,1053.248 1047.763,1052.80028 1047.763,1052.248 C1047.763,1051.69572 1048.21072,1051.248 1048.763,1051.248 L1058.539,1051.248 C1059.09128,1051.24717 1059.53967,1051.69422 1059.5405,1052.2465 C1059.54133,1052.79878 1059.09428,1053.24717 1058.542,1053.248 L1058.539,1053.248 Z M1058.916,1059.287 L1048.771,1059.287 C1048.21872,1059.287 1047.771,1058.83928 1047.771,1058.287 C1047.771,1057.73472 1048.21872,1057.287 1048.771,1057.287 L1058.916,1057.287 C1059.46828,1057.287 1059.916,1057.73472 1059.916,1058.287 C1059.916,1058.83928 1059.46828,1059.287 1058.916,1059.287 L1058.916,1059.287 Z M1055.811,1065.271 L1048.834,1065.271 C1048.28172,1065.271 1047.834,1064.82328 1047.834,1064.271 C1047.834,1063.71872 1048.28172,1063.271 1048.834,1063.271 L1055.811,1063.271 C1056.34536,1063.29492 1056.76629,1063.7351 1056.76629,1064.27 C1056.76629,1064.8049 1056.34536,1065.24508 1055.811,1065.269 L1055.811,1065.271 Z" id="Like"></path>
        </g>
    </g>
</svg>