<svg xmlns="http://www.w3.org/2000/svg" width="44.688" height="38.876" viewBox="0 0 44.688 38.876">
  <defs>
    <style>
      .cls-1 {
        fill: #00afbc;
        fill-rule: evenodd;
      }
    </style>
  </defs>
  <path id="Love" class="cls-1" d="M754.656,317.175c-0.036.039-.074,0.077-0.112,0.113l0.023-.02c-0.017.016-.033,0.033-0.05,0.05-2.967,2.961-15.948,15.273-16.466,15.763a2.916,2.916,0,0,1-4.087.028l-16.472-15.771-0.062-.063-0.131-.13a1.634,1.634,0,0,1-.126-0.138,13.017,13.017,0,0,1,18.82-17.988A13.019,13.019,0,1,1,754.656,317.175Zm-9.32-20.106a11.007,11.007,0,0,0-9.34,5.177,11.016,11.016,0,1,0-17.281,13.48l0,0,0.131,0.13,0.066,0.067,16.441,15.739a0.915,0.915,0,0,0,1.292,0s13.552-12.851,16.486-15.785l0,0,0.047-.048a0,0,0,0,1,0,0A11.017,11.017,0,0,0,745.336,297.069Zm-18.653,4.55a6.672,6.672,0,0,0-6.664,6.664,1,1,0,1,1-2,0,8.674,8.674,0,0,1,8.664-8.664A1,1,0,0,1,726.683,301.619Z" transform="translate(-713.656 -295.062)"/>
</svg>
