<svg xmlns="http://www.w3.org/2000/svg" width="55" height="31.093" viewBox="0 0 55 31.093">
  <defs>
    <style>
      .cls-1 {
        fill: #00afbc;
        fill-rule: evenodd;
      }
    </style>
  </defs>
  <path id="Delivery_van" data-name="Delivery van" class="cls-1" d="M599.014,247.908h-3.979a5.571,5.571,0,0,1-11.11,0H561.847a5.571,5.571,0,0,1-11.11,0H546a1,1,0,0,1-1-1v-6.933a1,1,0,0,1,1-1h33l0.013-16,2-.045,12.643,0,0.059,0.043,0.02,0a2,2,0,0,1,1.913,1.439l0.034,0.026,4.063,10.418,0.066,0.307a2.934,2.934,0,0,1,.1.472l0.1,0.457v10.814A1,1,0,0,1,599.014,247.908Zm-42.722,3.144a3.6,3.6,0,1,0-3.6-3.6A3.6,3.6,0,0,0,556.292,251.052Zm22.721-9.029v-1.048H547v4.933h3.94a5.566,5.566,0,0,1,10.715,0h17.363v-3.885Zm10.466,9.029a3.6,3.6,0,1,0-3.6-3.6A3.6,3.6,0,0,0,589.479,251.052Zm8.535-15.171-4.334-10.946-12.667,0v20.978h3.109a5.566,5.566,0,0,1,10.715,0h3.177V235.881ZM583,227.028h9.543l2.769,7.989H583v-7.989Zm2,5.941h7.719L591.187,229H585v3.969Zm-9.01,4.953H561a1,1,0,0,1-1-1V222.954a1.221,1.221,0,0,1,.9-0.97l15.1,0a1.324,1.324,0,0,1,1,.972v13.968A1,1,0,0,1,575.99,237.922Zm-0.975-13.935h-13v12h13v-12ZM557.99,237.922H548a1,1,0,0,1-1-1v-6.993a1.164,1.164,0,0,1,1.01-.933l10.024,0a1.053,1.053,0,0,1,.959.936v6.993A1,1,0,0,1,557.99,237.922Zm-0.975-6.9H549v4.962h8.011v-4.962Z" transform="translate(-545 -221.969)"/>
</svg>
