<svg xmlns="http://www.w3.org/2000/svg" width="49" height="41" viewBox="0 0 49 41">
  <defs>
    <style>
      .cls-1 {
        fill: #00afbc;
        fill-rule: evenodd;
      }
    </style>
  </defs>
  <path id="Box" class="cls-1" d="M83,227h0v28a3,3,0,0,1-3,3h-37a3,3,0,0,1-3-3v-0.25L40,254.719l1.994,0v0H42L41.994,254a2,2,0,0,0,2,2H79a2,2,0,0,0,2-2V228a1.98,1.98,0,0,0-.277-1H42.272a1.98,1.98,0,0,0-.278,1v26.719h-2V227h0a3,3,0,0,1-3-3v-0.25L37,223.719l1.994,0v0H39L38.994,223a2,2,0,0,0,2,2H82a2,2,0,0,0,2-2v-2.206A1.835,1.835,0,0,0,82,219h-41a1.8,1.8,0,0,0-2,1.752v2.967h-2V220a3,3,0,0,1,3-3H83a3,3,0,0,1,3,3v4A3,3,0,0,1,83,227Zm-29.994,6H70a1,1,0,1,1,0,2H53.005A1,1,0,1,1,53.005,233Z" transform="translate(-37 -217)"/>
</svg>
