<svg xmlns="http://www.w3.org/2000/svg" width="46" height="47.657" viewBox="0 0 46 47.657">
  <defs>
    <style>
      .cls-1 {
        fill: #00afbc;
        fill-rule: evenodd;
      }
    </style>
  </defs>
  <path id="Cards" class="cls-1" d="M593.012,338.965H553a3,3,0,0,1-3-3v-25.93a3,3,0,0,1,3-3h40.015a3,3,0,0,1,3,3v25.93A3,3,0,0,1,593.012,338.965Zm1-28.93a1,1,0,0,0-1-1H553a1,1,0,0,0-1,1v5.9h42.015v-5.9Zm0,7.988H552v17.942a1,1,0,0,0,1,1h40.015a1,1,0,0,0,1-1V318.023Zm-5.091,6.878h-4.607a0.95,0.95,0,0,1,0-1.9h4.607A0.95,0.95,0,0,1,588.921,324.9Zm-8.919,0H575.4a0.95,0.95,0,0,1,0-1.9H580A0.95,0.95,0,0,1,580,324.9Zm-8.7,0h-4.634a0.95,0.95,0,0,1,0-1.9H571.3A0.95,0.95,0,0,1,571.3,324.9Zm-8.946,0h-4.8a0.95,0.95,0,0,1,0-1.9h4.8A0.95,0.95,0,0,1,562.353,324.9Zm-4.8,5.1h18.688a0.95,0.95,0,0,1,0,1.9H557.557A0.95,0.95,0,0,1,557.557,330Zm27.066-29.267L575.5,306h-4.175l12.25-7.073-2.95-5.11a1,1,0,0,0-1.366-.366L557.527,306h-4l24.736-14.281a3,3,0,0,1,4.1,1.1L589.972,306h-2.309Z" transform="translate(-550 -291.312)"/>
</svg>
